<svg width="178" height="30" viewBox="0 0 178 30" fill="none" xmlns="http://www.w3.org/2000/svg">
<path d="M50.256 21.144C49.3387 21.144 48.624 20.952 48.112 20.568C47.6107 20.184 47.2587 19.6667 47.056 19.016C46.864 18.3653 46.768 17.64 46.768 16.84V12.264C46.768 11.3893 46.864 10.6267 47.056 9.976C47.2587 9.32533 47.6107 8.824 48.112 8.472C48.624 8.10933 49.3387 7.928 50.256 7.928C51.0667 7.928 51.7067 8.07733 52.176 8.376C52.656 8.67467 52.9973 9.10133 53.2 9.656C53.4133 10.2107 53.52 10.8773 53.52 11.656V12.68H51.808V11.768C51.808 11.288 51.7813 10.8667 51.728 10.504C51.6853 10.1307 51.5573 9.84267 51.344 9.64C51.1307 9.43733 50.7733 9.336 50.272 9.336C49.76 9.336 49.3867 9.448 49.152 9.672C48.9173 9.88533 48.7627 10.1947 48.688 10.6C48.624 10.9947 48.592 11.4587 48.592 11.992V17.128C48.592 17.7787 48.6453 18.296 48.752 18.68C48.8587 19.0533 49.0347 19.32 49.28 19.48C49.5253 19.64 49.856 19.72 50.272 19.72C50.7627 19.72 51.1147 19.6133 51.328 19.4C51.5413 19.176 51.6747 18.872 51.728 18.488C51.7813 18.104 51.808 17.656 51.808 17.144V16.184H53.52V17.144C53.52 17.9333 53.424 18.632 53.232 19.24C53.04 19.8373 52.7093 20.3067 52.24 20.648C51.7707 20.9787 51.1093 21.144 50.256 21.144ZM54.5384 21L57.2904 8.04H59.0344L61.8024 21H60.0904L59.4984 17.736H56.8584L56.2344 21H54.5384ZM57.0984 16.44H59.2584L58.1704 10.6L57.0984 16.44ZM62.3174 21L65.0214 14.216L62.3654 8.04H64.0454L66.0134 12.616L67.8054 8.04H69.4854L66.7654 14.36L69.6134 21H67.9334L65.8214 16.12L63.9974 21H62.3174ZM70.1321 21L72.8841 8.04H74.6281L77.3961 21H75.6841L75.0921 17.736H72.4521L71.8281 21H70.1321ZM72.6921 16.44H74.8521L73.7641 10.6L72.6921 16.44ZM78.7111 21V8.04H81.9271C82.7058 8.04 83.3245 8.184 83.7831 8.472C84.2525 8.74933 84.5938 9.15467 84.8071 9.688C85.0205 10.2213 85.1271 10.8667 85.1271 11.624C85.1271 12.3067 85.0045 12.8987 84.7591 13.4C84.5245 13.9013 84.1725 14.2907 83.7031 14.568C83.2338 14.8347 82.6471 14.968 81.9431 14.968H80.5191V21H78.7111ZM80.5191 13.672H81.3511C81.8738 13.672 82.2845 13.6133 82.5831 13.496C82.8818 13.3787 83.0951 13.176 83.2231 12.888C83.3511 12.5893 83.4151 12.1733 83.4151 11.64C83.4151 11.0213 83.3671 10.5467 83.2711 10.216C83.1858 9.88533 82.9991 9.656 82.7111 9.528C82.4231 9.4 81.9751 9.336 81.3671 9.336H80.5191V13.672ZM89.7106 21.144C88.836 21.144 88.1373 20.9733 87.6146 20.632C87.092 20.2907 86.7186 19.8053 86.4946 19.176C86.2706 18.536 86.1586 17.7893 86.1586 16.936V12.024C86.1586 11.1707 86.2706 10.44 86.4946 9.832C86.7293 9.21333 87.1026 8.744 87.6146 8.424C88.1373 8.09333 88.836 7.928 89.7106 7.928C90.5853 7.928 91.2786 8.09333 91.7906 8.424C92.3026 8.75467 92.6706 9.224 92.8946 9.832C93.1293 10.44 93.2466 11.1707 93.2466 12.024V16.952C93.2466 17.7947 93.1293 18.5307 92.8946 19.16C92.6706 19.7893 92.3026 20.28 91.7906 20.632C91.2786 20.9733 90.5853 21.144 89.7106 21.144ZM89.7106 19.72C90.1906 19.72 90.5533 19.624 90.7986 19.432C91.044 19.2293 91.2093 18.952 91.2946 18.6C91.38 18.2373 91.4226 17.816 91.4226 17.336V11.656C91.4226 11.176 91.38 10.7653 91.2946 10.424C91.2093 10.072 91.044 9.80533 90.7986 9.624C90.5533 9.432 90.1906 9.336 89.7106 9.336C89.2306 9.336 88.8626 9.432 88.6066 9.624C88.3613 9.80533 88.196 10.072 88.1106 10.424C88.0253 10.7653 87.9826 11.176 87.9826 11.656V17.336C87.9826 17.816 88.0253 18.2373 88.1106 18.6C88.196 18.952 88.3613 19.2293 88.6066 19.432C88.8626 19.624 89.2306 19.72 89.7106 19.72ZM97.8556 21.144C97.1516 21.144 96.565 21.0107 96.0956 20.744C95.6263 20.4773 95.2743 20.0933 95.0396 19.592C94.805 19.0907 94.6876 18.4987 94.6876 17.816V17.384H96.3836C96.3836 17.4587 96.3836 17.5387 96.3836 17.624C96.3836 17.6987 96.389 17.768 96.3996 17.832C96.421 18.3867 96.5276 18.84 96.7196 19.192C96.9116 19.544 97.2903 19.72 97.8556 19.72C98.2716 19.72 98.5863 19.624 98.7996 19.432C99.013 19.2293 99.157 18.952 99.2316 18.6C99.3063 18.2373 99.3436 17.8213 99.3436 17.352C99.3436 16.68 99.1943 16.12 98.8956 15.672C98.597 15.224 98.0316 14.9733 97.1996 14.92C97.157 14.9093 97.1036 14.904 97.0396 14.904C96.9863 14.904 96.9276 14.904 96.8636 14.904C96.8103 14.904 96.757 14.904 96.7036 14.904V13.528C96.7463 13.528 96.7943 13.528 96.8476 13.528C96.9116 13.528 96.9703 13.528 97.0236 13.528C97.0876 13.5173 97.1356 13.512 97.1676 13.512C97.989 13.4587 98.5543 13.2453 98.8636 12.872C99.1836 12.488 99.3436 11.9547 99.3436 11.272C99.3436 10.6853 99.2263 10.216 98.9916 9.864C98.7676 9.50133 98.3623 9.32 97.7756 9.32C97.2103 9.32 96.805 9.50133 96.5596 9.864C96.3143 10.216 96.1703 10.68 96.1276 11.256C96.1276 11.32 96.1276 11.3893 96.1276 11.464C96.1276 11.528 96.1276 11.5973 96.1276 11.672H94.4156V11.24C94.4156 10.5467 94.5436 9.95467 94.7996 9.464C95.0556 8.97333 95.429 8.59467 95.9196 8.328C96.4103 8.06133 97.0076 7.928 97.7116 7.928C98.4263 7.928 99.029 8.06667 99.5196 8.344C100.021 8.61067 100.4 8.99467 100.656 9.496C100.922 9.98667 101.056 10.5787 101.056 11.272C101.056 12.0507 100.885 12.6853 100.544 13.176C100.213 13.6667 99.765 13.992 99.1996 14.152C99.5836 14.28 99.9143 14.4827 100.192 14.76C100.469 15.0373 100.682 15.3947 100.832 15.832C100.981 16.2587 101.056 16.7653 101.056 17.352C101.056 18.12 100.949 18.792 100.736 19.368C100.522 19.9333 100.181 20.3707 99.7116 20.68C99.2423 20.9893 98.6236 21.144 97.8556 21.144ZM102.007 21L104.759 8.04H106.503L109.271 21H107.559L106.967 17.736H104.327L103.703 21H102.007ZM104.567 16.44H106.727L105.639 10.6L104.567 16.44ZM110.554 21L110.794 8.04H112.57L114.858 18.552L117.162 8.04H118.922L119.162 21H117.706L117.562 11.592L115.37 21H114.346L112.17 11.592L112.026 21H110.554ZM121.149 21V8.04H126.173V9.384H122.957V13.672H125.565V14.952H122.957V19.704H126.205V21H121.149ZM127.664 21V8.04H129.472V13.64H132.8V8.04H134.608V21H132.8V14.936H129.472V21H127.664ZM136.633 21V8.04H138.233V17.016L142.025 8.04H143.321V21H141.737V11.88L137.977 21H136.633ZM146.776 21V9.384H144.584V8.04H150.712V9.384H148.584V21H146.776ZM151.961 21V8.04H156.985V9.384H153.769V13.672H156.377V14.952H153.769V19.704H157.017V21H151.961ZM157.501 21V19.656C157.735 19.6667 157.949 19.6507 158.141 19.608C158.343 19.5653 158.519 19.464 158.669 19.304C158.829 19.144 158.967 18.8933 159.085 18.552C159.202 18.2107 159.303 17.7467 159.389 17.16C159.474 16.5733 159.549 15.832 159.613 14.936L160.045 8.04H165.741V21H163.933V9.384H161.597L161.293 14.936C161.239 15.768 161.17 16.52 161.085 17.192C160.999 17.8533 160.871 18.4347 160.701 18.936C160.541 19.4267 160.322 19.8373 160.045 20.168C159.778 20.488 159.437 20.7173 159.021 20.856C158.605 20.9947 158.098 21.0427 157.501 21ZM167.774 21V8.04H169.582V13.432H170.094C171.032 13.432 171.806 13.544 172.414 13.768C173.022 13.9813 173.475 14.36 173.774 14.904C174.083 15.448 174.238 16.216 174.238 17.208C174.238 17.88 174.158 18.456 173.998 18.936C173.838 19.4053 173.587 19.7947 173.246 20.104C172.915 20.4133 172.494 20.6427 171.982 20.792C171.48 20.9307 170.878 21 170.174 21H167.774ZM169.582 19.704H170.174C170.718 19.704 171.16 19.6453 171.502 19.528C171.854 19.4 172.115 19.1547 172.286 18.792C172.456 18.4293 172.542 17.896 172.542 17.192C172.542 16.3067 172.371 15.6773 172.03 15.304C171.688 14.9307 171.059 14.744 170.142 14.744H169.582V19.704Z" fill="black"/>
<rect x="0.5" y="0.5" width="29" height="29" stroke="#CDCDCD"/>
<path d="M13 19.718L7.3 13.2695L6.25 14.4574L13 22.0938L24.25 9.36648L23.2 8.09375L13 19.718Z" fill="#68B738"/>
</svg>
